<svg width="15" height="13" viewBox="0 0 15 13" fill="none" xmlns="http://www.w3.org/2000/svg">
<path d="M13.2563 8.6071C12.8586 9.42202 12.2367 10.1401 11.4449 10.6986C10.6531 11.2571 9.71549 11.639 8.71403 11.8109C7.71257 11.9828 6.67777 11.9395 5.7001 11.6847C4.72243 11.43 3.83165 10.9715 3.10564 10.3495C2.37964 9.72739 1.84052 8.96067 1.5354 8.11632C1.23029 7.27197 1.16848 6.37569 1.35538 5.50586C1.54228 4.63602 1.97219 3.8191 2.60754 3.12653C3.24288 2.43395 4.06431 1.88681 5.00001 1.53293" stroke="#DBDFEA" stroke-width="0.8" stroke-linecap="round" stroke-linejoin="round"/>
<path d="M13.75 6.50001C13.75 5.78869 13.5883 5.08432 13.2742 4.42714C12.9602 3.76996 12.4998 3.17283 11.9194 2.66985C11.3391 2.16686 10.6501 1.76788 9.89177 1.49566C9.13349 1.22345 8.32076 1.08334 7.5 1.08334V6.50001H13.75Z" stroke="#DBDFEA" stroke-width="0.8" stroke-linecap="round" stroke-linejoin="round"/>
</svg>
